<?xml version="1.0" encoding="UTF-8" standalone="no"?>
<svg
   xmlns:dc="http://purl.org/dc/elements/1.1/"
   xmlns:cc="http://creativecommons.org/ns#"
   xmlns:rdf="http://www.w3.org/1999/02/22-rdf-syntax-ns#"
   xmlns:svg="http://www.w3.org/2000/svg"
   xmlns="http://www.w3.org/2000/svg"
   xmlns:sodipodi="http://sodipodi.sourceforge.net/DTD/sodipodi-0.dtd"
   xmlns:inkscape="http://www.inkscape.org/namespaces/inkscape"
   height="1024"
   width="1024"
   version="1.1"
   id="svg4"
   sodipodi:docname="github.svg"
   inkscape:version="0.92.2 (5c3e80d, 2017-08-06)">
  <metadata
     id="metadata10">
    <rdf:RDF>
      <cc:Work
         rdf:about="">
        <dc:format>image/svg+xml</dc:format>
        <dc:type
           rdf:resource="http://purl.org/dc/dcmitype/StillImage" />
      </cc:Work>
    </rdf:RDF>
  </metadata>
  <defs
     id="defs8" />
  <sodipodi:namedview
     pagecolor="#ffffff"
     bordercolor="#666666"
     borderopacity="1"
     objecttolerance="10"
     gridtolerance="10"
     guidetolerance="10"
     inkscape:pageopacity="0"
     inkscape:pageshadow="2"
     inkscape:window-width="1920"
     inkscape:window-height="1005"
     id="namedview6"
     showgrid="false"
     inkscape:zoom="0.23046875"
     inkscape:cx="512"
     inkscape:cy="512"
     inkscape:window-x="-9"
     inkscape:window-y="-9"
     inkscape:window-maximized="1"
     inkscape:current-layer="svg4" />
  <path
     d="M512 0C229.25 0 0 229.25 0 512c0 226.25 146.688 418.125 350.156 485.812 25.594 4.688 34.938-11.125 34.938-24.625 0-12.188-0.469-52.562-0.719-95.312C242 908.812 211.906 817.5 211.906 817.5c-23.312-59.125-56.844-74.875-56.844-74.875-46.531-31.75 3.53-31.125 3.53-31.125 51.406 3.562 78.47 52.75 78.47 52.75 45.688 78.25 119.875 55.625 149 42.5 4.654-33 17.904-55.625 32.5-68.375C304.906 725.438 185.344 681.5 185.344 485.312c0-55.938 19.969-101.562 52.656-137.406-5.219-13-22.844-65.094 5.062-135.562 0 0 42.938-13.75 140.812 52.5 40.812-11.406 84.594-17.031 128.125-17.219 43.5 0.188 87.312 5.875 128.188 17.281 97.688-66.312 140.688-52.5 140.688-52.5 28 70.531 10.375 122.562 5.125 135.5 32.812 35.844 52.625 81.469 52.625 137.406 0 196.688-119.75 240-233.812 252.688 18.438 15.875 34.75 47 34.75 94.75 0 68.438-0.688 123.625-0.688 140.5 0 13.625 9.312 29.562 35.25 24.562C877.438 930 1024 738.125 1024 512 1024 229.25 794.75 0 512 0z"
     id="path2" />
  <path
     style="fill:#ffffff;stroke-width:4.33898306"
     d="M 311.00334,980.43696 C 184.11123,925.03929 81.978867,816.88363 32.549022,685.56062 4.8386929,611.94105 -4.3775097,501.04324 10.58063,421.21679 51.081602,205.07695 221.17302,40.723125 438.21924,8.0034313 540.97226,-7.4865694 644.95442,9.3241882 739.79661,56.759318 c 53.16756,26.591648 88.6223,52.397202 132.56752,96.488672 97.8087,98.13416 147.57807,218.82357 147.78977,358.38658 0.2174,143.38595 -54.43217,271.14882 -158.10605,369.6289 C 788.41509,951.2074 666.70002,1013.208 647.79863,990.40026 644.61954,986.56412 642.413,951.21994 641.46081,888.88003 L 640,793.24477 l -13.33569,-26.88812 -13.33569,-26.88811 15.50518,-2.6109 c 143.34143,-24.1368 209.27523,-100.2391 210.2259,-242.64747 0.40526,-60.68619 -12.51875,-102.43741 -41.88733,-135.31885 -7.75207,-8.67935 -8.01284,-11.41327 -3.05863,-32.06474 6.11019,-25.47024 3.64895,-70.58254 -5.30823,-97.29438 l -5.81988,-17.35593 -23.764,0.46211 c -25.52285,0.49631 -54.98667,11.25896 -95.88662,35.02577 l -24.39377,14.17515 -32.01301,-7.10054 c -43.54287,-9.6579 -146.31359,-9.6579 -189.85648,0 l -32.01299,7.10054 -24.39378,-14.17515 c -40.89994,-23.76681 -70.36377,-34.52946 -95.8866,-35.02577 l -23.764,-0.46211 -5.81989,17.35593 c -8.95718,26.71184 -11.41843,71.82414 -5.30821,97.29438 4.95421,20.65147 4.69342,23.38539 -3.05867,32.06474 -29.57229,33.10954 -42.54096,74.92476 -41.96811,135.31885 1.32491,139.68093 64.0904,215.41172 199.7957,241.06696 l 26.68909,5.04563 -8.73542,14.80539 c -4.80447,8.14301 -11.17178,23.05692 -14.14957,33.14206 -4.67866,15.84562 -7.70705,19.02878 -22.29266,23.43194 -25.33101,7.64702 -57.94963,6.6248 -77.91091,-2.44155 -9.70342,-4.40727 -25.32376,-17.2248 -34.71187,-28.48347 -49.76592,-59.68149 -55.05428,-64.00616 -85.18097,-69.65794 -38.09542,-7.14674 -44.71847,10.85153 -12.65445,34.38865 23.69763,17.39568 30.2798,26.0808 52.88931,69.78708 27.43312,53.03074 59.06241,69.64332 130.92767,68.76676 l 42.30509,-0.51604 v 50.70176 c 0,33.64938 -1.75118,52.45292 -5.20678,55.90853 -8.87773,8.87774 -30.28627,5.70694 -65.62039,-9.71897 z"
     id="path12"
     inkscape:connector-curvature="0" />
</svg>
